Coordinates
version=1
nRows=32
nColumns=12
inDegrees=yes

Units are S.I. units (second, meters, Newtons, ...)
Angles are in degrees

endheader
time	SC_y	SC_z	SC_x	AC_y	AC_z	AC_x	GH_y	GH_z	GH_yy	EL_x	PS_y
       0.0              -53.82          2.418          79.08          48.22         -8.451         -12.23           31.9           67.3         -55.42          87.28          96.03
   0.02888              -53.81           2.42          79.08          48.22         -8.452         -12.23          31.92           67.3          -55.4          87.27          96.03
   0.05776              -53.81          2.422          79.08          48.22         -8.452         -12.23          31.94           67.3         -55.38          87.27          96.04
   0.08665              -53.81          2.424          79.08          48.22         -8.453         -12.22          31.96          67.29         -55.36          87.27          96.04
    0.1155              -53.81          2.426          79.07          48.22         -8.454         -12.22          31.98          67.29         -55.33          87.27          96.04
    0.1444              -53.81          2.428          79.07          48.22         -8.455         -12.22          32.01          67.29         -55.31          87.26          96.05
    0.1733              -53.81           2.43          79.07          48.23         -8.456         -12.21          32.03          67.29         -55.28          87.26          96.05
    0.2022               -53.8          2.433          79.06          48.23         -8.457         -12.21          32.06          67.28         -55.25          87.26          96.06
    0.2311               -53.8          2.435          79.06          48.23         -8.458          -12.2          32.09          67.28         -55.22          87.25          96.06
    0.2599               -53.8          2.438          79.05          48.23         -8.459          -12.2          32.13          67.28         -55.18          87.25          96.07
    0.2888               -53.8          2.441          79.05          48.24          -8.46         -12.19          32.16          67.27         -55.15          87.24          96.08
    0.3177              -53.79          2.445          79.05          48.24         -8.461         -12.19           32.2          67.27         -55.11          87.24          96.08
    0.3466              -53.79          2.448          79.04          48.24         -8.463         -12.18          32.24          67.26         -55.06          87.23          96.09
    0.3755              -53.79          2.452          79.03          48.25         -8.464         -12.17          32.29          67.26         -55.02          87.23           96.1
    0.4043              -53.78          2.456          79.03          48.25         -8.466         -12.16          32.34          67.25         -54.96          87.22          96.11
    0.4332              -53.78          2.461          79.02          48.26         -8.468         -12.16          32.39          67.25         -54.91          87.22          96.12
    0.4621              -53.78          2.465          79.01          48.26          -8.47         -12.15          32.44          67.24         -54.85          87.21          96.13
     0.491              -53.77          2.471          79.01          48.27         -8.472         -12.14          32.51          67.23         -54.79           87.2          96.14
    0.5199              -53.77          2.477           79.0          48.27         -8.474         -12.13          32.57          67.23         -54.71          87.19          96.15
    0.5488              -53.76          2.483          78.99          48.28         -8.477         -12.12          32.65          67.22         -54.64          87.19          96.16
    0.5776              -53.76           2.49          78.98          48.29         -8.479          -12.1          32.73          67.21         -54.55          87.18          96.18
    0.6065              -53.75          2.498          78.97          48.29         -8.482         -12.09          32.82           67.2         -54.46          87.17          96.19
    0.6354              -53.74          2.506          78.95           48.3         -8.486         -12.07          32.92          67.19         -54.36          87.15          96.21
    0.6643              -53.73          2.516          78.94          48.31         -8.489         -12.06          33.03          67.18         -54.24          87.14          96.23
    0.6932              -53.72          2.526          78.92          48.32         -8.494         -12.04          33.15          67.16         -54.11          87.13          96.25
     0.722              -53.71          2.538          78.91          48.33         -8.498         -12.02          33.28          67.15         -53.97          87.11          96.27
    0.7509               -53.7          2.551          78.89          48.35         -8.503         -11.99          33.44          67.13         -53.81          87.09           96.3
    0.7798              -53.69          2.565          78.86          48.36         -8.509         -11.97          33.61          67.11         -53.63          87.07          96.33
    0.8087              -53.68          2.582          78.84          48.38         -8.516         -11.94           33.8          67.09         -53.43          87.05          96.36
    0.8376              -53.66          2.601          78.81          48.39         -8.523          -11.9          34.02          67.07          -53.2          87.02           96.4
    0.8665              -53.64          2.622          78.78          48.42         -8.532         -11.86          34.27          67.04         -52.94          86.99          96.45
    0.8953              -53.62          2.647          78.74          48.44         -8.542         -11.82          34.56          67.01         -52.64          86.96           96.5
